<svg ed:vSpacing="30" height="577" viewBox="0 0 1127 577" ed:hSpacing="30" xmlns:ed="https://www.edrawsoft.cn/xml/2017/SVGExtensions/" xmlns:ev="http://www.w3.org/2001/xml-events" width="1127" xmlns:xlink="http://www.w3.org/1999/xlink" id="page300000100" xmlns="http://www.w3.org/2000/svg" ed:name="页面-1"><style type="text/css"><![CDATA[
g[ed\:togtopicid],g[ed\:hyperlink],g[ed\:comment],g[ed\:note] {cursor:pointer;}
g[id] {-moz-user-select: none;-ms-user-select: none;user-select: none;}
svg text::selection,svg tspan::selection{background-color: #4285f4;color: #ffffff;fill: #ffffff;}
.st9 {fill:#454545;font-family:微软雅黑;font-size:10pt}
.st8 {fill:#ffffff;font-family:微软雅黑;font-size:14pt;font-weight:bold}
.st7 {fill:#ffffff;font-family:微软雅黑;font-size:18pt;font-weight:bold}
]]></style><defs/><rect height="577" y="0" width="1127" fill="#ffffff" x="0"/><path stroke-width="3" ed:parentid="101" ed:tosuperid="102" stroke-linecap="round" stroke-linejoin="round" transform="matrix(1,0,0,1,563.27,225)" stroke="#696969" id="103" fill="none" d="M0,30L0,4.3C0,4.3,0,1.6,0,-1.7L0,-30"/><path stroke-width="3" ed:parentid="101" ed:tosuperid="104" stroke-linecap="round" stroke-linejoin="round" transform="matrix(1,0,0,1,426.51,348)" stroke="#696969" id="105" fill="none" d="M136.8,-30L136.8,-4.3L-130.8,-4.3C-134.1,-4.3,-136.8,-1.6,-136.8,1.7L-136.8,30"/><path stroke-width="3" ed:parentid="101" ed:tosuperid="106" stroke-linecap="round" stroke-linejoin="round" transform="matrix(1,0,0,1,674.55,348)" stroke="#696969" id="107" fill="none" d="M-111.3,-30L-111.3,-4.3L105.3,-4.3C108.6,-4.3,111.3,-1.6,111.3,1.7L111.3,30"/><path ed:parentid="102" ed:tosuperid="108" stroke-linecap="round" stroke-linejoin="round" transform="matrix(1,0,0,1,400.13,130.5)" stroke="#191919" id="109" fill="none" d="M163.1,22.5L163.1,1.3L-157.1,1.3C-160.5,1.3,-163.1,-1.4,-163.1,-4.7L-163.1,-22.5"/><path ed:parentid="102" ed:tosuperid="110" stroke-linecap="round" stroke-linejoin="round" transform="matrix(1,0,0,1,615.27,130.5)" stroke="#191919" id="111" fill="none" d="M-52,1.3L46,1.3C49.3,1.3,52,-1.4,52,-4.7L52,-22.5"/><path ed:parentid="102" ed:tosuperid="112" stroke-linecap="round" stroke-linejoin="round" transform="matrix(1,0,0,1,778.41,130.5)" stroke="#191919" id="113" fill="none" d="M-215.1,1.3L209.1,1.3C212.4,1.3,215.1,-1.4,215.1,-4.7L215.1,-22.5"/><path ed:parentid="108" ed:tosuperid="114" stroke-linecap="round" stroke-linejoin="round" transform="matrix(1,0,0,1,185.64,63.5)" stroke="#191919" id="115" fill="none" d="M51.3,22.5L51.3,1.3L-45.3,1.3C-48.7,1.3,-51.3,-1.4,-51.3,-4.7L-51.3,-22.5"/><path ed:parentid="108" ed:tosuperid="116" stroke-linecap="round" stroke-linejoin="round" transform="matrix(1,0,0,1,297.02,63.5)" stroke="#191919" id="117" fill="none" d="M-60,1.3L54,1.3C57.3,1.3,60,-1.4,60,-4.7L60,-22.5"/><path ed:parentid="110" ed:tosuperid="120" stroke-linecap="round" stroke-linejoin="round" transform="matrix(1,0,0,1,578.81,63.5)" stroke="#191919" id="121" fill="none" d="M88.5,22.5L88.5,1.3L-82.5,1.3C-85.8,1.3,-88.5,-1.4,-88.5,-4.7L-88.5,-22.5"/><path ed:parentid="110" ed:tosuperid="122" stroke-linecap="round" stroke-linejoin="round" transform="matrix(1,0,0,1,610.32,63.5)" stroke="#191919" id="123" fill="none" d="M56.9,1.3L-50.9,1.3C-54.3,1.3,-56.9,-1.4,-56.9,-4.7L-56.9,-22.5"/><path ed:parentid="110" ed:tosuperid="124" stroke-linecap="round" stroke-linejoin="round" transform="matrix(1,0,0,1,642.52,63.5)" stroke="#191919" id="125" fill="none" d="M24.7,1.3L-18.7,1.3C-22.1,1.3,-24.7,-1.4,-24.7,-4.7L-24.7,-22.5"/><path ed:parentid="110" ed:tosuperid="126" stroke-linecap="round" stroke-linejoin="round" transform="matrix(1,0,0,1,678.34,63.5)" stroke="#191919" id="127" fill="none" d="M-11.1,1.3L5.1,1.3C8.4,1.3,11.1,-1.4,11.1,-4.7L11.1,-22.5"/><path ed:parentid="110" ed:tosuperid="128" stroke-linecap="round" stroke-linejoin="round" transform="matrix(1,0,0,1,715.48,63.5)" stroke="#191919" id="129" fill="none" d="M-48.2,1.3L42.2,1.3C45.5,1.3,48.2,-1.4,48.2,-4.7L48.2,-22.5"/><path ed:parentid="110" ed:tosuperid="130" stroke-linecap="round" stroke-linejoin="round" transform="matrix(1,0,0,1,751.91,63.5)" stroke="#191919" id="131" fill="none" d="M-84.6,1.3L78.6,1.3C82,1.3,84.6,-1.4,84.6,-4.7L84.6,-22.5"/><path ed:parentid="112" ed:tosuperid="132" stroke-linecap="round" stroke-linejoin="round" transform="matrix(1,0,0,1,958.4,63.5)" stroke="#191919" id="133" fill="none" d="M35.1,22.5L35.1,1.3L-29.1,1.3C-32.5,1.3,-35.1,-1.4,-35.1,-4.7L-35.1,-22.5"/><path ed:parentid="112" ed:tosuperid="135" stroke-linecap="round" stroke-linejoin="round" transform="matrix(1,0,0,1,997.7,63.5)" stroke="#191919" id="136" fill="none" d="M-4.1,1.3L-1.9,1.3C1.5,1.3,4.1,-1.4,4.1,-4.7L4.1,-22.5"/><path ed:parentid="112" ed:tosuperid="137" stroke-linecap="round" stroke-linejoin="round" transform="matrix(1,0,0,1,1032.84,63.5)" stroke="#191919" id="138" fill="none" d="M-39.3,1.3L33.3,1.3C36.6,1.3,39.3,-1.4,39.3,-4.7L39.3,-22.5"/><path ed:parentid="104" ed:tosuperid="139" stroke-linecap="round" stroke-linejoin="round" transform="matrix(1,0,0,1,230.1,442.5)" stroke="#191919" id="140" fill="none" d="M59.6,-22.5L59.6,-1.3L-53.6,-1.3C-57,-1.3,-59.6,1.4,-59.6,4.7L-59.6,22.5"/><path ed:parentid="104" ed:tosuperid="141" stroke-linecap="round" stroke-linejoin="round" transform="matrix(1,0,0,1,316.73,442.5)" stroke="#191919" id="142" fill="none" d="M-27,-1.3L21,-1.3C24.3,-1.3,27,1.4,27,4.7L27,22.5"/><path ed:parentid="104" ed:tosuperid="143" stroke-linecap="round" stroke-linejoin="round" transform="matrix(1,0,0,1,376.38,442.5)" stroke="#191919" id="144" fill="none" d="M-86.6,-1.3L80.6,-1.3C83.9,-1.3,86.6,1.4,86.6,4.7L86.6,22.5"/><path ed:parentid="139" ed:tosuperid="145" stroke-linecap="round" stroke-linejoin="round" transform="matrix(1,0,0,1,149.75,509.5)" stroke="#191919" id="146" fill="none" d="M20.7,-22.5L20.7,-1.3L-14.7,-1.3C-18,-1.3,-20.7,1.4,-20.7,4.7L-20.7,22.5"/><path ed:parentid="139" ed:tosuperid="147" stroke-linecap="round" stroke-linejoin="round" transform="matrix(1,0,0,1,197.26,509.5)" stroke="#191919" id="148" fill="none" d="M-26.8,-1.3L20.8,-1.3C24.1,-1.3,26.8,1.4,26.8,4.7L26.8,22.5"/><path ed:parentid="141" ed:tosuperid="149" stroke-linecap="round" stroke-linejoin="round" transform="matrix(1,0,0,1,327.75,509.5)" stroke="#191919" id="150" fill="none" d="M16,-22.5L16,-1.3L-10,-1.3C-13.3,-1.3,-16,1.4,-16,4.7L-16,22.5"/><path ed:parentid="141" ed:tosuperid="151" stroke-linecap="round" stroke-linejoin="round" transform="matrix(1,0,0,1,366.88,509.5)" stroke="#191919" id="152" fill="none" d="M-23.2,-1.3L17.2,-1.3C20.5,-1.3,23.2,1.4,23.2,4.7L23.2,22.5"/><path ed:parentid="143" ed:tosuperid="153" stroke-linecap="round" stroke-linejoin="round" transform="matrix(1,0,0,1,463.01,509.5)" stroke="#191919" id="154" fill="none" d="M0,-22.5L0,-1.3C0,-1.3,0,1.4,0,4.7L0,22.5"/><path ed:parentid="106" ed:tosuperid="155" stroke-linecap="round" stroke-linejoin="round" transform="matrix(1,0,0,1,679.41,442.5)" stroke="#191919" id="156" fill="none" d="M106.4,-22.5L106.4,-1.3L-100.4,-1.3C-103.7,-1.3,-106.4,1.4,-106.4,4.7L-106.4,22.5"/><path ed:parentid="106" ed:tosuperid="157" stroke-linecap="round" stroke-linejoin="round" transform="matrix(1,0,0,1,731.39,442.5)" stroke="#191919" id="158" fill="none" d="M54.4,-1.3L-48.4,-1.3C-51.8,-1.3,-54.4,1.4,-54.4,4.7L-54.4,22.5"/><path ed:parentid="106" ed:tosuperid="159" stroke-linecap="round" stroke-linejoin="round" transform="matrix(1,0,0,1,773.22,442.5)" stroke="#191919" id="160" fill="none" d="M12.6,-1.3L-6.6,-1.3C-9.9,-1.3,-12.6,1.4,-12.6,4.7L-12.6,22.5"/><path ed:parentid="106" ed:tosuperid="161" stroke-linecap="round" stroke-linejoin="round" transform="matrix(1,0,0,1,820.52,442.5)" stroke="#191919" id="162" fill="none" d="M-34.7,-1.3L28.7,-1.3C32,-1.3,34.7,1.4,34.7,4.7L34.7,22.5"/><path ed:parentid="106" ed:tosuperid="163" stroke-linecap="round" stroke-linejoin="round" transform="matrix(1,0,0,1,885.11,442.5)" stroke="#191919" id="164" fill="none" d="M-99.3,-1.3L93.3,-1.3C96.6,-1.3,99.3,1.4,99.3,4.7L99.3,22.5"/><g ed:height="63" ed:layout="map" ed:topictype="mainidea" transform="matrix(1,0,0,1,487.3,255)" id="101" ed:width="151.9375"><path stroke-width="3" stroke-linejoin="round" stroke="#7c49fa" fill="#7c49fa" d="M0,0L151.9,0L151.9,63L0,63L0,0z"/><text class="st7"><tspan style="white-space:pre" y="40.6" textLength="107" x="23">SimpleIR</tspan></text></g><g ed:parentid="101" ed:height="42" ed:layout="top" transform="matrix(1,0,0,1,510.02,153)" id="102" ed:width="106.515625"><path stroke-width="3" stroke-linejoin="round" stroke="#f0c43d" fill="#f0c43d" d="M0,0L106.5,0L106.5,42L0,42L0,0z"/><text class="st8"><tspan style="white-space:pre" y="28.6" textLength="67" x="20">Extract</tspan></text></g><g ed:parentid="101" ed:height="42" ed:layout="bottom" transform="matrix(1,0,0,1,227.54,378)" id="104" ed:width="124.40625"><path stroke-width="3" stroke-linejoin="round" stroke="#a8df41" fill="#a8df41" d="M0,0L124.4,0L124.4,42L0,42L0,0z"/><text class="st8"><tspan style="white-space:pre" y="28.6" textLength="84" x="20">Retrieval</tspan></text></g><g ed:parentid="101" ed:height="42" ed:layout="bottom" transform="matrix(1,0,0,1,734.88,378)" id="106" ed:width="101.90625"><path stroke-width="3" stroke-linejoin="round" stroke="#35b58f" fill="#35b58f" d="M0,0L101.9,0L101.9,42L0,42L0,0z"/><text class="st8"><tspan style="white-space:pre" y="28.6" textLength="62" x="20">Metric</tspan></text></g><g ed:parentid="102" ed:height="22" ed:layout="top" transform="matrix(1,0,0,1,206.45,86)" id="108" ed:width="61.078125"><path stroke-linejoin="round" stroke="#fcf5e8" fill="#fcf5e8" d="M0,0L61.1,0L61.1,22L0,22L0,0z"/><text class="st9"><tspan style="white-space:pre" y="15.6" textLength="40" x="10">Model</tspan></text></g><g ed:parentid="102" ed:height="22" ed:layout="top" transform="matrix(1,0,0,1,623.88,86)" id="110" ed:width="86.78125"><path stroke-linejoin="round" stroke="#fcf5e8" fill="#fcf5e8" d="M0,0L86.8,0L86.8,22L0,22L0,0z"/><text class="st9"><tspan style="white-space:pre" y="15.6" textLength="66" x="10">Aggregate</tspan></text></g><g ed:parentid="102" ed:height="22" ed:layout="top" transform="matrix(1,0,0,1,956.95,86)" id="112" ed:width="73.203125"><path stroke-linejoin="round" stroke="#fcf5e8" fill="#fcf5e8" d="M0,0L73.2,0L73.2,22L0,22L0,0z"/><text class="st9"><tspan style="white-space:pre" y="15.6" textLength="52" x="10">Enhance</tspan></text></g><g ed:parentid="108" ed:height="22" ed:layout="top" transform="matrix(1,0,0,1,21,19)" id="114" ed:width="226.59375"><path stroke-linejoin="round" stroke="#fcf5e8" fill="#fcf5e8" d="M0,0L226.6,0L226.6,22L0,22L0,0z"/><text class="st9"><tspan style="white-space:pre" y="15.6" textLength="206" x="10">ResNet18/ResNet34/ResNet50/...</tspan></text></g><g ed:parentid="108" ed:height="22" ed:layout="top" transform="matrix(1,0,0,1,261.09,19)" id="116" ed:width="191.890625"><path stroke-linejoin="round" stroke="#fcf5e8" fill="#fcf5e8" d="M0,0L191.9,0L191.9,22L0,22L0,0z"/><text class="st9"><tspan style="white-space:pre" y="15.6" textLength="171" x="10">MobileNetV2/MobileNetV3</tspan></text></g><g ed:parentid="110" ed:height="22" ed:layout="top" transform="matrix(1,0,0,1,466.48,19)" id="120" ed:width="47.75"><path stroke-linejoin="round" stroke="#fcf5e8" fill="#fcf5e8" d="M0,0L47.8,0L47.8,22L0,22L0,0z"/><text class="st9"><tspan style="white-space:pre" y="15.6" textLength="27" x="10">GAP</tspan></text></g><g ed:parentid="110" ed:height="22" ed:layout="top" transform="matrix(1,0,0,1,527.73,19)" id="122" ed:width="51.296875"><path stroke-linejoin="round" stroke="#fcf5e8" fill="#fcf5e8" d="M0,0L51.3,0L51.3,22L0,22L0,0z"/><text class="st9"><tspan style="white-space:pre" y="15.6" textLength="30" x="10">GMP</tspan></text></g><g ed:parentid="110" ed:height="22" ed:layout="top" transform="matrix(1,0,0,1,592.53,19)" id="124" ed:width="50.484375"><path stroke-linejoin="round" stroke="#fcf5e8" fill="#fcf5e8" d="M0,0L50.5,0L50.5,22L0,22L0,0z"/><text class="st9"><tspan style="white-space:pre" y="15.6" textLength="29" x="10">GEM</tspan></text></g><g ed:parentid="110" ed:height="22" ed:layout="top" transform="matrix(1,0,0,1,656.52,19)" id="126" ed:width="65.8125"><path stroke-linejoin="round" stroke="#fcf5e8" fill="#fcf5e8" d="M0,0L65.8,0L65.8,22L0,22L0,0z"/><text class="st9"><tspan style="white-space:pre" y="15.6" textLength="45" x="10">R_MAC</tspan></text></g><g ed:parentid="110" ed:height="22" ed:layout="top" transform="matrix(1,0,0,1,735.83,19)" id="128" ed:width="55.734375"><path stroke-linejoin="round" stroke="#fcf5e8" fill="#fcf5e8" d="M0,0L55.7,0L55.7,22L0,22L0,0z"/><text class="st9"><tspan style="white-space:pre" y="15.6" textLength="35" x="10">SPOC</tspan></text></g><g ed:parentid="110" ed:height="22" ed:layout="top" transform="matrix(1,0,0,1,805.06,19)" id="130" ed:width="62.984375"><path stroke-linejoin="round" stroke="#fcf5e8" fill="#fcf5e8" d="M0,0L63,0L63,22L0,22L0,0z"/><text class="st9"><tspan style="white-space:pre" y="15.6" textLength="41" x="10">CROW</tspan></text></g><g ed:parentid="112" ed:height="22" ed:layout="top" transform="matrix(1,0,0,1,881.55,19)" id="132" ed:width="83.40625"><path stroke-linejoin="round" stroke="#fcf5e8" fill="#fcf5e8" d="M0,0L83.4,0L83.4,22L0,22L0,0z"/><text class="st9"><tspan style="white-space:pre" y="15.6" textLength="62" x="10">L2_NORM</tspan></text></g><g ed:parentid="112" ed:height="22" ed:layout="top" transform="matrix(1,0,0,1,978.45,19)" id="135" ed:width="46.78125"><path stroke-linejoin="round" stroke="#fcf5e8" fill="#fcf5e8" d="M0,0L46.8,0L46.8,22L0,22L0,0z"/><text class="st9"><tspan style="white-space:pre" y="15.6" textLength="26" x="10">PCA</tspan></text></g><g ed:parentid="112" ed:height="22" ed:layout="top" transform="matrix(1,0,0,1,1038.73,19)" id="137" ed:width="66.8125"><path stroke-linejoin="round" stroke="#fcf5e8" fill="#fcf5e8" d="M0,0L66.8,0L66.8,22L0,22L0,0z"/><text class="st9"><tspan style="white-space:pre" y="15.6" textLength="45" x="10">PCA_W</tspan></text></g><g ed:parentid="104" ed:height="22" ed:layout="bottom" transform="matrix(1,0,0,1,133.33,465)" id="139" ed:width="74.25"><path stroke-linejoin="round" stroke="#f1f9e8" fill="#f1f9e8" d="M0,0L74.3,0L74.3,22L0,22L0,0z"/><text class="st9"><tspan style="white-space:pre" y="15.6" textLength="53" x="10">Distance</tspan></text></g><g ed:parentid="104" ed:height="22" ed:layout="bottom" transform="matrix(1,0,0,1,317.36,465)" id="141" ed:width="52.71875"><path stroke-linejoin="round" stroke="#f1f9e8" fill="#f1f9e8" d="M0,0L52.7,0L52.7,22L0,22L0,0z"/><text class="st9"><tspan style="white-space:pre" y="15.6" textLength="31" x="10">Rank</tspan></text></g><g ed:parentid="104" ed:height="22" ed:layout="bottom" transform="matrix(1,0,0,1,428.72,465)" id="143" ed:width="68.578125"><path stroke-linejoin="round" stroke="#f1f9e8" fill="#f1f9e8" d="M0,0L68.6,0L68.6,22L0,22L0,0z"/><text class="st9"><tspan style="white-space:pre" y="15.6" textLength="47" x="10">ReRank</tspan></text></g><g ed:parentid="139" ed:height="22" ed:layout="bottom" transform="matrix(1,0,0,1,82.19,532)" id="145" ed:width="93.734375"><path stroke-linejoin="round" stroke="#f1f9e8" fill="#f1f9e8" d="M0,0L93.7,0L93.7,22L0,22L0,0z"/><text class="st9"><tspan style="white-space:pre" y="15.6" textLength="73" x="10">EUCLIDEAN</tspan></text></g><g ed:parentid="139" ed:height="22" ed:layout="bottom" transform="matrix(1,0,0,1,189.42,532)" id="147" ed:width="69.296875"><path stroke-linejoin="round" stroke="#f1f9e8" fill="#f1f9e8" d="M0,0L69.3,0L69.3,22L0,22L0,0z"/><text class="st9"><tspan style="white-space:pre" y="15.6" textLength="48" x="10">COSINE</tspan></text></g><g ed:parentid="141" ed:height="22" ed:layout="bottom" transform="matrix(1,0,0,1,272.22,532)" id="149" ed:width="79.125"><path stroke-linejoin="round" stroke="#f1f9e8" fill="#f1f9e8" d="M0,0L79.1,0L79.1,22L0,22L0,0z"/><text class="st9"><tspan style="white-space:pre" y="15.6" textLength="58" x="10">NORMAL</tspan></text></g><g ed:parentid="141" ed:height="22" ed:layout="bottom" transform="matrix(1,0,0,1,364.84,532)" id="151" ed:width="50.375"><path stroke-linejoin="round" stroke="#f1f9e8" fill="#f1f9e8" d="M0,0L50.4,0L50.4,22L0,22L0,0z"/><text class="st9"><tspan style="white-space:pre" y="15.6" textLength="29" x="10">KNN</tspan></text></g><g ed:parentid="143" ed:height="22" ed:layout="bottom" transform="matrix(1,0,0,1,443.64,532)" id="153" ed:width="38.734375"><path stroke-linejoin="round" stroke="#f1f9e8" fill="#f1f9e8" d="M0,0L38.7,0L38.7,22L0,22L0,0z"/><text class="st9"><tspan style="white-space:pre" y="15.6" textLength="18" x="10">QE</tspan></text></g><g ed:parentid="106" ed:height="22" ed:layout="bottom" transform="matrix(1,0,0,1,527.3,465)" id="155" ed:width="91.375"><path stroke-linejoin="round" stroke="#e8f3ee" fill="#e8f3ee" d="M0,0L91.4,0L91.4,22L0,22L0,0z"/><text class="st9"><tspan style="white-space:pre" y="15.6" textLength="70" x="10">ACCURACY</tspan></text></g><g ed:parentid="106" ed:height="22" ed:layout="bottom" transform="matrix(1,0,0,1,632.17,465)" id="157" ed:width="89.546875"><path stroke-linejoin="round" stroke="#e8f3ee" fill="#e8f3ee" d="M0,0L89.5,0L89.5,22L0,22L0,0z"/><text class="st9"><tspan style="white-space:pre" y="15.6" textLength="69" x="10">PRECISION</tspan></text></g><g ed:parentid="106" ed:height="22" ed:layout="bottom" transform="matrix(1,0,0,1,735.22,465)" id="159" ed:width="50.78125"><path stroke-linejoin="round" stroke="#e8f3ee" fill="#e8f3ee" d="M0,0L50.8,0L50.8,22L0,22L0,0z"/><text class="st9"><tspan style="white-space:pre" y="15.6" textLength="30" x="10">MAP</tspan></text></g><g ed:parentid="106" ed:height="22" ed:layout="bottom" transform="matrix(1,0,0,1,799.5,465)" id="161" ed:width="111.4375"><path stroke-linejoin="round" stroke="#e8f3ee" fill="#e8f3ee" d="M0,0L111.4,0L111.4,22L0,22L0,0z"/><text class="st9"><tspan style="white-space:pre" y="15.6" textLength="90" x="10">MAP_OXFORD</tspan></text></g><g ed:parentid="106" ed:height="22" ed:layout="bottom" transform="matrix(1,0,0,1,924.44,465)" id="163" ed:width="119.921875"><path stroke-linejoin="round" stroke="#e8f3ee" fill="#e8f3ee" d="M0,0L119.9,0L119.9,22L0,22L0,0z"/><text class="st9"><tspan style="white-space:pre" y="15.6" textLength="99" x="10">MAP_ROXFORD</tspan></text></g></svg>