<svg version="1.1" xmlns="http://www.w3.org/2000/svg" xmlns:xlink="http://www.w3.org/1999/xlink" role="img" width="268" height="90" viewbox="0 0 268 90"><title>SimpleIR</title><desc>Generated by logo.svg, https://github.com/bubkoo/logo.svg</desc><path fill="#2b68a7" d="M15.66 70.99Q10.98 70.99 7.82 69.74Q4.65 68.50 3.05 66.42Q1.45 64.34 1.45 61.84Q1.45 59.41 2.98 58.19Q4.52 56.98 6.38 56.98Q6.38 59.92 7.43 62.38Q8.49 64.85 10.63 66.35Q12.78 67.86 16.10 67.86Q20.58 67.86 23.21 65.62Q25.83 63.38 25.83 59.60Q25.83 57.68 25.26 56.14Q24.68 54.61 22.95 53.07Q21.22 51.54 17.77 49.55Q13.74 47.25 11.21 44.24Q8.68 41.23 8.68 36.37Q8.68 32.72 10.54 29.94Q12.39 27.15 15.88 25.58Q19.37 24.02 24.23 24.02Q29.80 24.02 33.10 25.94Q36.39 27.86 36.39 30.93Q36.39 32.91 35.05 34.13Q33.70 35.34 30.76 35.34Q30.76 33.62 30.18 31.73Q29.61 29.84 28.10 28.53Q26.60 27.22 23.72 27.22Q21.48 27.22 19.50 28.08Q17.51 28.94 16.26 30.74Q15.02 32.53 15.02 35.28Q15.02 37.65 15.88 39.25Q16.74 40.85 18.54 42.19Q20.33 43.54 22.95 45.07Q27.75 47.82 30.09 50.77Q32.42 53.71 32.42 57.55Q32.42 63.95 27.94 67.47Q23.46 70.99 15.66 70.99ZM50.15 29.65Q48.55 29.65 47.56 28.78Q46.57 27.92 46.57 26.13Q46.57 24.14 47.62 22.90Q48.68 21.65 50.41 21.65Q51.94 21.65 52.97 22.51Q53.99 23.38 53.99 25.17Q53.99 27.66 52.78 28.66Q51.56 29.65 50.15 29.65M45.74 70.99Q43.18 70.99 41.80 69.20Q40.42 67.41 40.42 64.91Q40.42 63.57 40.68 61.71Q40.94 59.86 41.26 58Q41.58 56.14 41.83 54.86L44.33 43.09Q44.52 42.13 44.52 41.42Q44.52 39.70 43.46 39.22Q42.41 38.74 40.62 38.74L39.78 38.74L40.36 36.05L51.82 36.05L47.46 56.59Q47.34 57.30 47.08 58.64Q46.82 59.98 46.66 61.39Q46.50 62.80 46.50 63.70Q46.50 66.96 48.62 66.96Q49.64 66.96 50.82 66.48Q52.01 66 53.22 65.30L54.38 67.15Q52.97 68.43 50.54 69.71Q48.10 70.99 45.74 70.99ZM103.72 70.99Q100.90 70.99 99.40 69.20Q97.90 67.41 97.90 64.59Q97.90 61.65 99.11 55.95L100.20 50.96Q100.39 50.13 100.71 48.75Q101.03 47.38 101.29 45.94Q101.54 44.50 101.54 43.34Q101.54 42.06 101 40.82Q100.46 39.57 98.60 39.57Q96.74 39.57 94.92 40.82Q93.10 42.06 91.50 44.05Q89.90 46.03 88.71 48.30Q87.53 50.58 86.89 52.56L85.86 57.17Q85.67 58.06 85.35 59.92Q85.03 61.78 84.74 63.92Q84.46 66.06 84.23 67.86Q84.01 69.65 84.01 70.35L77.93 70.35Q77.93 69.58 78.15 67.82Q78.38 66.06 78.70 63.86Q79.02 61.65 79.40 59.54Q79.78 57.42 80.10 55.95L81.19 50.96Q81.38 50.13 81.70 48.75Q82.02 47.38 82.28 45.94Q82.54 44.50 82.54 43.34Q82.54 42.06 81.99 40.82Q81.45 39.57 79.59 39.57Q77.54 39.57 75.59 41.04Q73.64 42.51 71.94 44.82Q70.25 47.12 69.06 49.58Q67.88 52.05 67.50 53.97L64.04 70.35L58.09 70.35L63.46 44.62Q63.66 43.73 63.75 42.90Q63.85 42.06 63.85 41.74Q63.85 39.82 62.50 39.28Q61.16 38.74 59.37 38.74L58.86 38.74L59.43 36.05L71.27 36.05L69.54 44.11L70.18 44.11Q72.81 39.89 75.53 37.68Q78.25 35.47 81.83 35.47Q85.61 35.47 87.14 37.62Q88.68 39.76 88.68 42.58Q88.68 42.96 88.65 43.34Q88.62 43.73 88.55 44.11L89.19 44.11Q91.75 39.89 94.50 37.68Q97.26 35.47 100.84 35.47Q104.62 35.47 106.15 37.62Q107.69 39.76 107.69 42.58Q107.69 44.18 107.27 46.06Q106.86 47.95 106.54 49.62L104.87 57.17Q104.49 58.96 104.26 60.69Q104.04 62.42 104.04 63.89Q104.04 66.96 106.28 66.96Q108.14 66.96 110.38 65.49L111.53 67.34Q109.99 68.62 108.10 69.81Q106.22 70.99 103.72 70.99ZM112.17 85.71L120.68 45.14Q120.94 43.86 121.10 42.96Q121.26 42.06 121.26 41.74Q121.26 39.82 119.94 39.28Q118.63 38.74 116.78 38.74L116.26 38.74L116.84 36.05L128.17 36.05L126.63 44.56L126.95 44.56Q128.23 42.06 129.86 39.98Q131.50 37.90 133.64 36.66Q135.78 35.41 138.66 35.41Q142.57 35.41 144.68 38.38Q146.79 41.36 146.79 46.99Q146.79 49.74 146.02 52.98Q145.26 56.21 143.75 59.41Q142.25 62.61 139.98 65.23Q137.70 67.86 134.63 69.42Q131.56 70.99 127.72 70.99Q125.86 70.99 124.26 70.61Q122.66 70.22 121.45 69.52Q121.45 69.52 121.32 70.51Q121.19 71.50 120.94 72.59L120.04 76.50Q119.91 76.88 119.69 78.13Q119.46 79.38 119.46 80.08Q119.46 82 120.78 82.51Q122.09 83.02 123.94 83.02L124.78 83.02L124.20 85.71L112.17 85.71M127.53 68.11Q129.96 68.11 131.98 66.70Q133.99 65.30 135.53 62.93Q137.06 60.56 138.12 57.78Q139.18 54.99 139.72 52.14Q140.26 49.30 140.26 46.93Q140.26 45.07 139.91 43.34Q139.56 41.62 138.70 40.53Q137.83 39.44 136.23 39.44Q134.38 39.44 132.58 40.85Q130.79 42.26 129.26 44.46Q127.72 46.67 126.63 49.10Q125.54 51.54 125.10 53.65L122.47 65.81Q123.05 66.51 124.39 67.31Q125.74 68.11 127.53 68.11ZM159.53 70.99Q156.97 70.99 155.59 69.20Q154.22 67.41 154.22 64.91Q154.22 63.57 154.47 61.71Q154.73 59.86 155.05 58Q155.37 56.14 155.62 54.86L160.87 30.29Q161.06 29.39 161.16 28.56Q161.26 27.73 161.26 27.41Q161.26 25.49 159.94 24.94Q158.63 24.40 156.78 24.40L156.01 24.40L156.58 21.71L168.68 21.71L161.26 56.59Q161.06 57.30 160.84 58.64Q160.62 59.98 160.42 61.39Q160.23 62.80 160.23 63.70Q160.23 66.96 162.34 66.96Q163.37 66.96 164.55 66.48Q165.74 66 166.95 65.30L168.10 67.15Q166.70 68.43 164.33 69.71Q161.96 70.99 159.53 70.99ZM184.23 70.99Q180.78 70.99 177.96 69.52Q175.14 68.05 173.45 65.14Q171.75 62.22 171.75 57.74Q171.75 54.22 172.97 50.32Q174.18 46.42 176.62 43.02Q179.05 39.63 182.60 37.52Q186.15 35.41 190.82 35.41Q194.86 35.41 197.10 37.36Q199.34 39.31 199.34 42.77Q199.34 46.16 196.94 49.07Q194.54 51.98 190.34 53.78Q186.15 55.57 180.78 55.57L178.54 55.57Q178.47 56.27 178.44 56.94Q178.41 57.62 178.41 58.26Q178.41 62.42 180.20 64.69Q181.99 66.96 185.45 66.96Q188.52 66.96 190.92 65.49Q193.32 64.02 194.66 62.35Q195.30 62.80 195.30 63.95Q195.30 65.36 194.12 66.99Q192.94 68.62 190.50 69.81Q188.07 70.99 184.23 70.99M179.11 52.62L179.75 52.62Q183.46 52.62 186.41 51.38Q189.35 50.13 191.05 47.92Q192.74 45.71 192.74 42.77Q192.74 38.48 189.03 38.48Q187.18 38.48 185.61 39.73Q184.04 40.98 182.76 43.06Q181.48 45.14 180.55 47.63Q179.62 50.13 179.11 52.62ZM199.21 70.35L199.72 67.66L200.55 67.66Q202.73 67.66 204.46 66.86Q206.18 66.06 206.82 63.06L213.48 31.70Q213.74 30.67 213.74 29.90Q213.74 28.24 212.46 27.79Q211.18 27.34 209.13 27.34L208.30 27.34L208.87 24.66L227.50 24.66L226.92 27.34L226.09 27.34Q223.91 27.34 222.22 28.14Q220.52 28.94 219.88 31.95L213.22 63.31Q212.97 64.34 212.97 65.10Q212.97 66.77 214.25 67.22Q215.53 67.66 217.58 67.66L218.41 67.66L217.83 70.35L199.21 70.35ZM222.76 70.35L223.34 67.66L224.17 67.66Q226.22 67.66 227.91 66.96Q229.61 66.26 230.25 63.38L236.97 31.70Q237.22 30.67 237.22 29.90Q237.22 28.24 235.94 27.79Q234.66 27.34 232.62 27.34L231.78 27.34L232.36 24.66L249.13 24.66Q263.78 24.66 263.78 35.54Q263.78 39.89 261.96 42.64Q260.14 45.39 257.38 46.86Q254.63 48.34 251.94 48.91L256.55 62.61Q257.45 65.23 258.54 66.45Q259.62 67.66 261.80 67.66L262.31 67.66L261.80 70.35L260.97 70.35Q257.32 70.35 255.11 69.71Q252.90 69.07 251.66 67.47Q250.41 65.87 249.58 62.86L245.86 50.19L239.53 50.19L236.71 63.31Q236.46 64.34 236.46 65.10Q236.46 66.77 237.74 67.22Q239.02 67.66 241.06 67.66L243.18 67.66L242.60 70.35L222.76 70.35M240.17 47.18L245.10 47.18Q248.49 47.18 251.18 46.03Q253.86 44.88 255.43 42.42Q257 39.95 257 35.92Q257 31.38 254.95 29.55Q252.90 27.73 248.62 27.73L244.26 27.73L240.17 47.18Z"></path></svg>